HIERARCHY
ROOT Pelvis
{
	OFFSET 0.000000 0.000000 0.000000
	CHANNELS 6 Xposition Yposition Zposition Xrotation Yrotation Zrotation
	JOINT LeftUpLeg_virtual
	{
		OFFSET 0.000000 0.000000 0.000000
		CHANNELS 3 Xrotation Yrotation Zrotation
		JOINT LeftUpLeg
		{
			OFFSET 18.735201 -5.666702 -4.541200
			CHANNELS 3 Xrotation Yrotation Zrotation
			JOINT LeftLeg
			{
				OFFSET -0.021200 -31.938179 0.493100
				CHANNELS 3 Xrotation Yrotation Zrotation
				JOINT LeftFoot
				{
					OFFSET 0.021200 -31.938179 -4.336299
					CHANNELS 3 Xrotation Yrotation Zrotation
					JOINT LeftToeBase
					{
						OFFSET 0.943001 -26.722000 15.023500
						CHANNELS 3 Xrotation Yrotation Zrotation
						End Site
						{
							OFFSET 0 0 0
						}
					}
				}
			}
		}
	}
	JOINT RightUpLeg_virtual
	{
		OFFSET 0.000000 0.000000 0.000000
		CHANNELS 3 Xrotation Yrotation Zrotation
		JOINT RightUpLeg
		{
			OFFSET -18.735201 -5.666702 -4.541200
			CHANNELS 3 Xrotation Yrotation Zrotation
			JOINT RightLeg
			{
				OFFSET 0.018946 -31.938133 0.493100
				CHANNELS 3 Xrotation Yrotation Zrotation
				JOINT RightFoot
				{
					OFFSET -0.018946 -31.938126 -4.336299
					CHANNELS 3 Xrotation Yrotation Zrotation
					JOINT RightToeBase
					{
						OFFSET -0.943001 -26.722004 15.023500
						CHANNELS 3 Xrotation Yrotation Zrotation
						End Site
						{
							OFFSET 0 0 0
						}
					}
				}
			}
		}
	}
	JOINT Hips_virtual
	{
		OFFSET 0.000000 0.000000 0.000000
		CHANNELS 3 Xrotation Yrotation Zrotation
		JOINT Hips
		{
			OFFSET -0.000000 -0.000000 -0.000000
			CHANNELS 3 Xrotation Yrotation Zrotation
			JOINT Spine
			{
				OFFSET 0.000000 10.199997 -0.299500
				CHANNELS 3 Xrotation Yrotation Zrotation
				JOINT Spine1
				{
					OFFSET 0.000000 11.900002 -1.516600
					CHANNELS 3 Xrotation Yrotation Zrotation
					JOINT Spine2
					{
						OFFSET 0.000000 13.600006 -2.842500
						CHANNELS 3 Xrotation Yrotation Zrotation
						JOINT Neck_virtual
						{
							OFFSET 0.000000 0.000000 0.000000
							CHANNELS 3 Xrotation Yrotation Zrotation
							JOINT Neck
							{
								OFFSET 0.000000 9.624100 -2.890100
								CHANNELS 3 Xrotation Yrotation Zrotation
								JOINT Head
								{
									OFFSET 0.000000 14.068802 -1.351900
									CHANNELS 3 Xrotation Yrotation Zrotation
									End Site
									{
										OFFSET 0 0 0
									}
								}
							}
						}
						JOINT LeftShoulder_virtual
						{
							OFFSET 0.000000 0.000000 0.000000
							CHANNELS 3 Xrotation Yrotation Zrotation
							JOINT LeftShoulder
							{
								OFFSET 15.263000 10.923401 -0.547700
								CHANNELS 3 Xrotation Yrotation Zrotation
								JOINT LeftArm
								{
									OFFSET 25.438599 -2.830597 -13.032500
									CHANNELS 3 Xrotation Yrotation Zrotation
									JOINT LeftForeArm
									{
										OFFSET 29.960503 0.000000 0.000000
										CHANNELS 3 Xrotation Yrotation Zrotation
										JOINT LeftHand
										{
											OFFSET 27.849251 0.000000 0.000000
											CHANNELS 3 Xrotation Yrotation Zrotation
											End Site
											{
												OFFSET 0 0 0
											}
										}
									}
								}
							}
						}
						JOINT RightShoulder_virtual
						{
							OFFSET 0.000000 0.000000 0.000000
							CHANNELS 3 Xrotation Yrotation Zrotation
							JOINT RightShoulder
							{
								OFFSET -15.263000 10.923401 -0.547700
								CHANNELS 3 Xrotation Yrotation Zrotation
								JOINT RightArm
								{
									OFFSET -25.438599 -2.830597 -13.032500
									CHANNELS 3 Xrotation Yrotation Zrotation
									JOINT RightForeArm
									{
										OFFSET -29.960503 0.000000 0.000000
										CHANNELS 3 Xrotation Yrotation Zrotation
										JOINT RightHand
										{
											OFFSET -27.849251 0.000000 0.000000
											CHANNELS 3 Xrotation Yrotation Zrotation
											End Site
											{
												OFFSET 0 0 0
											}
										}
									}
								}
							}
						}
					}
				}
			}
		}
	}
}
MOTION
Frames: 10
Frame Time: 0.03333333
3.206136 87.494598 4.867371 0.000000 0.000000 0.000000 16.513482 -25.172199 5.564763 -91.119696 19.536559 26.952650 98.265392 20.606179 -5.003504 19.087133 15.740460 13.490164 0.000000 0.000000 0.000000 20.447939 -26.166299 7.392260 -49.717695 10.301906 -11.194280 47.882198 -7.273357 2.465510 -2.523052 -8.207767 11.556393 0.000000 0.000000 0.000000 24.840944 -27.898413 10.653469 -1.443907 2.380710 -2.734323 23.907506 4.224795 -11.435294 -6.798633 1.126927 3.162486 0.000000 0.000000 0.000000 -5.829832 -0.406414 3.961634 -1.285495 -0.179582 -0.735569 0.000000 0.000000 0.000000 -9.000939 -0.410482 2.624307 4.499124 -7.040588 12.008337 -73.798193 23.106578 -26.609430 143.569019 -76.059655 145.604361 0.000000 0.000000 0.000000 -6.530469 -0.328804 2.965889 4.213477 16.957847 5.855333 -24.144319 -18.610285 45.483534 33.113467 76.575983 -35.569224 0.000000 0.000000 0.000000 
2.275930 87.978340 12.815968 0.000000 0.000000 0.000000 15.559352 -25.580406 6.591361 -90.230624 17.099706 25.567975 86.826820 17.703359 -1.440121 11.764680 7.284704 5.911302 0.000000 0.000000 0.000000 20.909635 -25.956022 7.472084 -44.883106 8.629619 -11.984089 42.794376 -8.442752 1.479699 3.481532 -7.544307 14.969999 0.000000 0.000000 0.000000 23.457018 -26.107602 10.403435 -0.806936 3.133802 -0.759538 24.645052 5.113796 -10.722038 -6.979184 1.617644 3.505161 0.000000 0.000000 0.000000 -5.497577 0.075845 3.992879 -1.301610 -0.161230 -0.734227 0.000000 0.000000 0.000000 -8.460174 0.127918 3.242704 4.048855 -6.111542 12.437840 -74.337457 23.750584 -24.854341 140.066758 -75.800736 142.743072 0.000000 0.000000 0.000000 -6.663488 0.155721 3.067628 4.796962 18.340217 2.364441 -30.995668 -6.661405 39.540955 36.737706 77.719240 -39.989019 0.000000 0.000000 0.000000 
0.767832 88.673256 24.125849 0.000000 0.000000 0.000000 16.103202 -23.544091 8.826036 -86.490160 17.386412 24.127626 68.229881 13.798685 0.518220 8.434444 0.977220 -1.564384 0.000000 0.000000 0.000000 21.646311 -23.584858 8.761311 -34.053110 5.174762 -13.447074 32.532256 -9.439584 -0.477196 19.148987 -4.173012 22.402093 0.000000 0.000000 0.000000 21.112036 -21.676080 10.696413 0.061103 2.630724 -0.782104 25.435256 6.595567 -11.085091 -7.076747 2.232580 3.815410 0.000000 0.000000 0.000000 -5.164549 0.935915 3.825921 -1.640509 -0.253884 -0.622014 0.000000 0.000000 0.000000 -7.463909 1.001392 3.667425 3.144468 -4.759238 10.663643 -71.825573 25.377100 -22.247391 139.220169 -73.122380 142.395756 0.000000 0.000000 0.000000 -6.508453 1.020509 3.316241 5.473038 19.221090 -0.759104 -34.657650 6.695541 34.938607 47.428745 79.238281 -51.919587 0.000000 0.000000 0.000000 
-0.982292 89.068817 36.351273 0.000000 0.000000 0.000000 16.700390 -19.348958 11.492970 -80.564793 20.233674 21.538824 50.075641 11.002996 0.578916 9.365105 -1.217733 -4.317638 0.000000 0.000000 0.000000 21.472303 -19.010660 10.601819 -21.750334 2.501213 -13.916136 23.516729 -9.579486 -3.224538 35.678613 1.000372 27.980591 0.000000 0.000000 0.000000 17.762896 -15.642472 11.512735 -0.286305 1.064508 -2.364384 26.780270 8.277265 -12.395300 -6.939387 2.886364 3.885627 0.000000 0.000000 0.000000 -4.742050 1.870020 3.442507 -2.270193 -0.431134 -0.412588 0.000000 0.000000 0.000000 -6.226876 1.941401 3.746363 2.064922 -3.445933 6.665953 -65.526697 27.486220 -20.768524 140.351727 -68.923398 143.681581 0.000000 0.000000 0.000000 -6.028672 2.007377 3.465385 5.710824 19.770508 -1.823928 -32.859063 16.317436 31.595721 59.692466 79.754370 -65.859758 0.000000 0.000000 0.000000 
-2.087040 88.770462 49.188763 0.000000 0.000000 0.000000 16.477509 -14.720255 14.055832 -71.557536 23.379717 15.419159 37.083187 9.410145 0.885898 10.174894 -0.488964 -2.415257 0.000000 0.000000 0.000000 19.085727 -13.096860 12.475873 -12.756912 1.859595 -14.431906 21.809550 -9.537943 -5.981329 45.209924 4.083499 29.948160 0.000000 0.000000 0.000000 13.707619 -9.431622 12.817302 -0.390821 -1.855147 -3.730846 28.942069 9.561268 -13.989593 -6.616265 3.326375 3.609347 0.000000 0.000000 0.000000 -4.133102 2.465396 2.825031 -3.161845 -0.666717 -0.123071 0.000000 0.000000 0.000000 -4.996420 2.565455 3.431055 1.072655 -2.747663 1.448124 -55.368894 28.878856 -22.761184 141.368742 -64.679187 144.533442 0.000000 0.000000 0.000000 -5.333103 2.702647 3.297655 5.083026 19.822143 0.107079 -25.823629 18.810107 28.929884 66.650120 79.655824 -74.826778 0.000000 0.000000 0.000000 
-2.859159 87.587448 61.197861 0.000000 0.000000 0.000000 15.341223 -10.613321 15.860321 -58.762747 23.874481 5.897640 29.880790 8.100822 2.176919 6.842675 0.568374 1.170656 0.000000 0.000000 0.000000 14.760184 -7.423940 14.139918 -12.603046 3.048938 -15.837672 33.105517 -10.221652 -7.195395 46.189591 4.657712 30.274178 0.000000 0.000000 0.000000 9.416100 -5.022327 14.143894 -1.561187 -3.233519 -4.287054 32.112725 9.969760 -15.237677 -5.969913 3.241881 2.922719 0.000000 0.000000 0.000000 -3.438291 2.383196 2.017277 -4.222597 -0.862541 0.209540 0.000000 0.000000 0.000000 -4.024462 2.512408 2.730865 0.120819 -3.140982 -3.758804 -43.532463 27.230877 -28.434361 141.301068 -61.943238 144.144859 0.000000 0.000000 0.000000 -4.544837 2.683366 2.706848 3.543844 18.875721 5.304909 -14.981841 12.544740 27.925136 62.028711 79.238152 -72.123096 0.000000 0.000000 0.000000 
-3.539925 86.060493 73.281883 0.000000 0.000000 0.000000 12.901008 -8.168619 16.564928 -45.506385 21.629522 -2.802245 29.302505 6.665272 3.586479 -1.842490 0.133134 3.922900 0.000000 0.000000 0.000000 9.864653 -3.345727 14.792228 -22.281964 5.897316 -17.969193 56.971950 -10.567268 -5.339315 42.453273 5.440921 29.452602 0.000000 0.000000 0.000000 5.681072 -3.370202 14.750342 -2.857505 -2.734076 -3.339615 35.486709 9.371204 -15.270701 -5.081580 2.339277 1.950003 0.000000 0.000000 0.000000 -2.770871 1.358980 1.100380 -5.348924 -0.978626 0.514637 0.000000 0.000000 0.000000 -3.346637 1.516369 1.750373 -0.735234 -4.529368 -8.240951 -34.558271 21.625506 -35.060430 140.868513 -60.917255 143.291590 0.000000 0.000000 0.000000 -3.818847 1.685247 1.833760 1.633437 16.407766 12.124231 -2.746624 0.835889 30.854485 45.222553 78.052861 -56.969382 0.000000 0.000000 0.000000 
-4.189139 84.244453 85.204742 0.000000 0.000000 0.000000 9.251618 -6.606278 15.522148 -34.697361 17.510322 -7.664520 34.754291 5.626223 4.120824 -14.142503 -1.304397 5.442094 0.000000 0.000000 0.000000 5.250764 -2.599710 13.689308 -39.210668 9.562322 -18.214194 81.721718 -8.779541 -1.970420 37.261305 7.177822 27.348825 0.000000 0.000000 0.000000 3.263584 -3.712649 13.975148 -3.407105 -0.928711 -2.377922 38.034711 8.060334 -13.270101 -4.234056 0.434955 0.930072 0.000000 0.000000 0.000000 -2.325234 -0.700651 0.244883 -6.393858 -0.926097 0.713976 0.000000 0.000000 0.000000 -2.933617 -0.491479 0.653544 -1.367996 -6.332347 -10.896395 -31.276608 14.390722 -40.499825 140.359595 -61.646965 142.502362 0.000000 0.000000 0.000000 -3.365696 -0.393573 0.885751 0.254745 12.321070 18.055310 9.415448 -11.000924 38.345922 26.174137 75.700202 -39.082561 0.000000 0.000000 0.000000 
-4.931362 82.393791 96.267754 0.000000 0.000000 0.000000 5.718594 -5.500564 12.532240 -26.087112 12.954039 -8.176961 41.577165 5.369705 3.530974 -25.393252 -2.158755 5.417944 0.000000 0.000000 0.000000 2.198019 -3.568275 11.033618 -58.664645 12.573571 -14.579370 96.585377 -6.036192 0.270129 31.847485 8.921428 23.851968 0.000000 0.000000 0.000000 2.774913 -4.698936 11.654057 -2.967456 1.250819 -1.670298 38.926655 6.466589 -9.186048 -3.480082 -2.358493 0.076297 0.000000 0.000000 0.000000 -2.233407 -3.543711 -0.374612 -7.178689 -0.697517 0.752928 0.000000 0.000000 0.000000 -2.759186 -3.290541 -0.337658 -1.576417 -7.759094 -11.429282 -33.189190 8.798417 -43.548627 141.331763 -63.633621 143.204437 0.000000 0.000000 0.000000 -3.323322 -3.311397 0.041212 -0.237008 7.213826 21.417800 20.983956 -19.339133 47.336455 11.167832 72.948148 -24.326748 0.000000 0.000000 0.000000 
-5.347064 81.162674 107.780968 0.000000 0.000000 0.000000 3.737821 -5.034633 8.943048 -17.093452 10.121289 -6.128574 43.355049 5.311173 2.514703 -30.061957 -1.377103 2.625746 0.000000 0.000000 0.000000 0.911986 -4.730255 7.757307 -74.165910 13.340803 -8.823202 98.275364 -4.179419 1.589599 27.750302 9.386740 18.443683 0.000000 0.000000 0.000000 3.505778 -5.505816 8.611456 -2.181254 2.229512 -1.198744 37.763136 4.741304 -3.660740 -2.906284 -5.568006 -0.421539 0.000000 0.000000 0.000000 -2.349032 -6.652602 -0.606143 -7.569554 -0.340557 0.655050 0.000000 0.000000 0.000000 -2.681986 -6.429597 -0.980593 -1.179629 -8.127922 -10.100108 -37.830106 7.034533 -42.960271 145.307917 -66.231812 146.737844 0.000000 0.000000 0.000000 -3.553716 -6.600737 -0.519258 -0.053307 1.885355 21.710967 30.859987 -24.475734 53.819463 -0.279763 72.917761 -11.789385 0.000000 0.000000 0.000000 
